<svg width="35" height="35" viewBox="0 0 35 35" fill="none" xmlns="http://www.w3.org/2000/svg">
<path d="M34.4863 33.9727H31.1644V13.6644C31.1644 13.3808 30.9344 13.1507 30.6506 13.1507H25.1712C24.8875 13.1507 24.6575 13.3808 24.6575 13.6644V33.9727H20.7534V19.6918C20.7534 19.4081 20.5235 19.1781 20.2397 19.1781H14.7603C14.4765 19.1781 14.2466 19.4081 14.2466 19.6918V33.9727H10.3425V22.4315C10.3425 22.1478 10.1125 21.9178 9.82878 21.9178H4.34937C4.06561 21.9178 3.83564 22.1478 3.83564 22.4315V33.9726H0.513721C0.229961 33.9726 0 34.2026 0 34.4863C0 34.77 0.229961 35 0.513721 35H34.4863C34.77 35 35 34.77 35 34.4863C34.9999 34.2026 34.77 33.9727 34.4863 33.9727ZM9.31506 33.9727H4.86302V22.9453H9.31506V33.9727ZM19.7261 33.9727H15.274V20.2056H19.7261V33.9727ZM30.137 33.9727H25.6849V14.1782H30.137V33.9727Z" fill="#D3B929"/>
<path d="M33.3599 0.40258C33.0137 0.0969452 32.5529 -0.0454474 32.0949 0.0121112L27.7113 0.56008C26.8411 0.66884 26.205 1.48567 26.3138 2.35677C26.4238 3.23703 27.2292 3.86437 28.1106 3.75431L28.4683 3.70967C23.088 9.94787 16.6919 13.1718 12.1721 14.7921C6.53645 16.8125 2.15003 16.9853 2.10731 16.9867C1.22116 17.0144 0.521983 17.7579 0.54878 18.6442C0.575303 19.5195 1.28166 20.2051 2.157 20.2051C2.17327 20.2051 2.18961 20.2049 2.20636 20.2043C2.40139 20.1984 7.05126 20.0342 13.1773 17.8514C16.6211 16.6242 19.8616 14.9951 22.8087 13.0095C23.0439 12.851 23.1062 12.5317 22.9476 12.2964C22.7891 12.0611 22.4699 11.9989 22.2345 12.1575C19.3588 14.0952 16.1954 15.6853 12.8324 16.8836C6.85692 19.0128 2.36352 19.1717 2.1756 19.1773L2.157 19.1776C1.84064 19.1776 1.58525 18.9297 1.57567 18.6131C1.56597 18.2925 1.8189 18.0236 2.13964 18.0135C2.18448 18.0121 6.69607 17.8465 12.5188 15.7592C17.3968 14.0105 24.406 10.4399 30.0958 3.36029C30.379 3.00782 30.0796 2.47264 29.6317 2.52876L27.9835 2.7348C27.6977 2.77014 27.4202 2.5829 27.3476 2.30386C27.2604 1.96808 27.495 1.62245 27.8389 1.57939L32.2226 1.03142C32.5648 0.988146 32.8768 1.2648 32.8768 1.60912V5.99267C32.8768 6.31368 32.6157 6.57488 32.2946 6.57488C31.9735 6.57488 31.7124 6.31375 31.7124 5.99267V4.66376C31.7124 4.45383 31.5766 4.2575 31.3803 4.18333C31.1775 4.1067 30.9378 4.17103 30.8007 4.33892C28.882 6.68987 26.6974 8.81721 24.3074 10.6618C24.0828 10.8352 24.0412 11.1578 24.2145 11.3824C24.3879 11.607 24.7106 11.6485 24.9351 11.4752C27.017 9.86844 28.9468 8.05275 30.6867 6.0652C30.7247 6.91921 31.4314 7.60239 32.2947 7.60239C33.1822 7.60239 33.9043 6.88031 33.9043 5.9928V1.60926C33.9042 1.14783 33.7058 0.707941 33.3599 0.40258Z" fill="#D3B929"/>
</svg>
