<svg width="35" height="28" viewBox="0 0 35 28" fill="none" xmlns="http://www.w3.org/2000/svg">
<path d="M34.6415 13.0123L26.5477 4.43727C26.0503 3.90967 25.2199 3.88561 24.6923 4.38347C24.1655 4.88093 24.1411 5.7117 24.6389 6.23889L31.8827 13.9127L24.6389 21.5874C24.1411 22.1146 24.1655 22.9449 24.6923 23.4428C24.9461 23.6821 25.2702 23.8007 25.5932 23.8007C25.9419 23.8007 26.2901 23.6624 26.5478 23.3898L34.6416 14.8144C35.1188 14.3082 35.1188 13.518 34.6415 13.0123Z" fill="#B51D1D"/>
<path d="M10.361 21.5869L3.11772 13.9126L10.361 6.2384C10.8584 5.71121 10.8344 4.88037 10.3072 4.38298C9.7804 3.88553 8.94915 3.90959 8.45176 4.43678L0.357966 13.0118C-0.119322 13.5176 -0.119322 14.3081 0.357966 14.8139L8.45217 23.3894C8.7103 23.6628 9.05811 23.8006 9.40682 23.8006C9.72968 23.8006 10.0539 23.6816 10.3072 23.4423C10.8349 22.9448 10.8584 22.1141 10.361 21.5869Z" fill="#B51D1D"/>
<path d="M19.6229 0.0149967C18.9067 -0.0934903 18.2365 0.398222 18.1271 1.11443L14.2771 26.3146C14.1677 27.0312 14.6599 27.701 15.3765 27.8104C15.4439 27.8205 15.5103 27.8253 15.5764 27.8253C16.2139 27.8253 16.773 27.3603 16.8723 26.711L20.7224 1.51085C20.8317 0.794162 20.3396 0.124372 19.6229 0.0149967Z" fill="#B51D1D"/>
</svg>
