<svg width="60" height="60" viewBox="0 0 60 60" fill="none" xmlns="http://www.w3.org/2000/svg">
<g clip-path="url(#clip0)">
<path d="M60 30C60 39.6465 55.4461 48.2302 48.371 53.7184C43.2955 57.6564 36.922 60 30 60C23.078 60 16.7045 57.6564 11.629 53.7184C4.55391 48.2302 0 39.6465 0 30C0 13.4314 13.4314 0 30 0C46.5686 0 60 13.4314 60 30Z" fill="#F2F2F2"/>
<path d="M51.796 14.0009L48.3711 53.7184C43.2955 57.6564 36.9221 60 30 60C23.078 60 16.7045 57.6564 11.629 53.7184L8.2041 14.0009H51.796Z" fill="#006BC0"/>
<path d="M29.9996 17.7349V59.2144L44.3284 55.1692L47.5248 17.7349H29.9996Z" fill="#0096DC"/>
<path d="M42.6605 33.9594H32.3262L43.1249 28.4637L43.5915 22.939H16.4078L16.8834 28.5716H27.7956L17.3256 33.8067L17.8127 39.5769H36.4894L35.8772 46.4491L29.9996 48.041L23.8772 46.3267L23.7241 42.041H18.0209L18.7343 50.49L29.9996 53.6736L41.2649 50.49L42.6608 33.9585L42.6605 33.9594Z" fill="white"/>
<path d="M19.3772 7.87782V3.95942H25.0098V1.83704H17.3364V10.0002H25.0098V7.87782H19.3772Z" fill="#222123"/>
<path d="M28.3057 5.03086V4.05118H33.9078V3.95942V1.83704H26.2343V6.89813H31.7342V7.87782H26.2343V10.0002H33.9078V7.87782V5.03086H28.3057Z" fill="#222123"/>
<path d="M37.0608 5.03086V4.05118H42.6628V3.95942V1.83704H34.9894V6.89813H40.4893V7.87782H34.9894V10.0002H42.6628V7.87782V5.03086H37.0608Z" fill="#222123"/>
</g>
<defs>
<clipPath id="clip0">
<rect width="60" height="60" fill="white"/>
</clipPath>
</defs>
</svg>
