<svg width="50" height="32" viewBox="0 0 50 32" fill="none" xmlns="http://www.w3.org/2000/svg">
<path d="M39.4792 21.4265C38.4979 19.3807 34.9875 16.541 31.5959 13.7973C29.7042 12.2681 27.9167 10.8223 26.7771 9.68271C26.4917 9.39521 26.0646 9.30351 25.6876 9.43896C24.9855 9.69316 24.5521 9.88896 24.2105 10.041C23.6897 10.2743 23.5147 10.3535 22.8126 10.4243C22.5021 10.4556 22.223 10.6223 22.0501 10.8806C20.5771 13.0826 19.0521 12.8951 18.0334 12.5535C17.7084 12.4452 17.6501 12.3056 17.6188 12.1723C17.4001 11.2577 18.498 9.12851 19.9209 7.70556C23.3063 4.31806 25.0521 3.47011 28.7396 5.11806C32.9229 6.98886 37.1146 8.45351 37.1563 8.46806C37.7043 8.65761 38.2938 8.37011 38.4834 7.82636C38.6709 7.28261 38.3854 6.68886 37.8417 6.49931C37.8 6.48476 33.6917 5.04931 29.5917 3.21386C24.8146 1.07841 22.1937 2.48466 18.45 6.23056C17.025 7.65556 15.0895 10.5389 15.5895 12.6535C15.8041 13.5535 16.4375 14.2202 17.3791 14.5306C19.7395 15.3098 21.8936 14.5639 23.4978 12.4348C24.1603 12.3327 24.5208 12.1827 25.0624 11.939C25.2582 11.8515 25.4874 11.7494 25.7916 11.6265C26.9833 12.7452 28.5916 14.0473 30.2853 15.416C33.3478 17.8931 36.8208 20.7015 37.602 22.3265C37.9875 23.1285 37.5728 23.6515 37.2916 23.891C36.8791 24.2452 36.3145 24.3577 36.0083 24.1431C35.6708 23.9118 35.2312 23.8973 34.8833 24.1056C34.5333 24.3139 34.3375 24.7076 34.3812 25.1118C34.452 25.7743 33.8458 26.1535 33.5833 26.2848C32.9166 26.6223 32.2208 26.564 31.9603 26.3223C31.6686 26.0515 31.2499 25.9723 30.8791 26.1098C30.5083 26.2493 30.2499 26.591 30.2124 26.9868C30.1499 27.6701 29.6436 28.3264 28.9832 28.5826C28.6644 28.7034 28.2019 28.7764 27.7874 28.3972C27.5291 28.1639 27.1707 28.0742 26.8353 28.1555C26.4958 28.2388 26.2228 28.4847 26.1041 28.8117C26.0645 28.9159 25.9749 29.1659 24.9999 29.1659C24.3061 29.1659 23.0582 28.6972 22.4478 28.293C21.7166 27.8117 17.1311 24.3909 13.1708 21.0742C12.6145 20.6055 11.652 19.6013 10.802 18.7138C10.0478 17.9263 9.35827 17.2117 9.00407 16.9117C8.56032 16.5367 7.90407 16.593 7.53532 17.0347C7.16452 17.4742 7.21862 18.1326 7.65827 18.5034C7.98122 18.7764 8.60622 19.4367 9.29577 20.1555C10.225 21.1263 11.1853 22.1305 11.8312 22.6722C15.7104 25.9201 20.3729 29.4264 21.302 30.0367C22.0687 30.5409 23.7208 31.2492 25 31.2492C26.027 31.2492 26.8167 31.0138 27.3645 30.5534C28.0978 30.8389 28.9312 30.8409 29.7333 30.5284C30.6812 30.1617 31.4603 29.4222 31.902 28.5264C32.7228 28.7014 33.6625 28.5784 34.5166 28.1493C35.352 27.7285 35.9561 27.0848 36.2561 26.3326C37.0853 26.3764 37.9394 26.0826 38.6457 25.4764C39.8417 24.4535 40.1708 22.8619 39.4792 21.4265Z" fill="#252934"/>
<path d="M20.8333 4.16592H11.4583C10.8833 4.16592 10.4166 4.63262 10.4166 5.20762C10.4166 5.78262 10.8833 6.24932 11.4583 6.24932H20.8333C21.4083 6.24932 21.875 5.78262 21.875 5.20762C21.875 4.63262 21.4083 4.16592 20.8333 4.16592Z" fill="#252934"/>
<path d="M42.5313 19.2096C42.2083 18.7325 41.5625 18.6013 41.0855 18.9263L38.0397 20.9721C37.5626 21.2929 37.4355 21.9408 37.7564 22.4179C37.9584 22.7158 38.2876 22.8783 38.6231 22.8783C38.821 22.8783 39.0231 22.8221 39.2023 22.7013L42.2481 20.6555C42.725 20.3346 42.8521 19.6867 42.5313 19.2096Z" fill="#252934"/>
<path d="M36.0645 24.1806C35.3187 23.5931 31.9833 20.1785 29.9208 18.0285C29.5229 17.6119 28.8625 17.5973 28.4479 17.9973C28.0312 18.3952 28.0187 19.0556 28.4166 19.4702C28.9521 20.0285 33.6749 24.9515 34.7728 25.8182C34.9624 25.9682 35.1916 26.0411 35.4166 26.0411C35.7228 26.0411 36.0291 25.9036 36.2374 25.6432C36.5937 25.1931 36.5167 24.5369 36.0645 24.1806Z" fill="#252934"/>
<path d="M31.902 26.27C30.6541 25.2721 27.5187 21.9408 26.8103 21.17C26.4186 20.745 25.7624 20.72 25.3374 21.1075C24.9144 21.4971 24.8853 22.1575 25.2749 22.5805C25.3124 22.62 29.0541 26.6597 30.5999 27.8972C30.7916 28.0492 31.0228 28.1242 31.2499 28.1242C31.5541 28.1242 31.8582 27.9888 32.0644 27.7347C32.4229 27.2846 32.35 26.6283 31.902 26.27Z" fill="#252934"/>
<path d="M27.7563 28.3681C26.2708 27.1161 23.2313 23.8806 22.6375 23.2452C22.2438 22.8244 21.5833 22.8014 21.1646 23.1952C20.7438 23.5889 20.7229 24.2472 21.1146 24.6681C21.9688 25.5827 24.8771 28.6661 26.4125 29.9619C26.6083 30.1264 26.8458 30.2077 27.0833 30.2077C27.3791 30.2077 27.675 30.0806 27.8813 29.8369C28.2521 29.3952 28.1958 28.7389 27.7563 28.3681Z" fill="#252934"/>
<path d="M12.175 2.36812C10.3896 0.676417 3.25 0.128467 1.1042 0.00141608C0.808398 -0.0131347 0.535449 0.0847174 0.327148 0.282667C0.11875 0.478468 0 0.753468 0 1.04097V19.791C0 20.366 0.466699 20.8327 1.0417 20.8327H7.2917C7.7417 20.8327 8.1417 20.5431 8.28125 20.1139C8.4333 19.6472 12.0229 8.63063 12.4958 3.21392C12.5229 2.89722 12.4062 2.58472 12.175 2.36812ZM6.53125 18.7494H2.0833V2.15767C5.43125 2.42222 9.04375 2.99722 10.3562 3.63472C9.8042 8.19723 7.30625 16.3035 6.53125 18.7494Z" fill="#252934"/>
<path d="M48.9583 2.08273C40.7791 2.08273 36.2416 4.17648 36.0521 4.26398C35.7813 4.39103 35.5791 4.62648 35.4958 4.91193C35.4125 5.19738 35.4541 5.50363 35.6104 5.75773C36.8979 7.83068 40.9291 19.3432 41.7041 22.1515C41.8291 22.6035 42.2396 22.916 42.7083 22.916H48.9583C49.5333 22.916 50 22.4493 50 21.8743V3.12433C50 2.54728 49.5333 2.08273 48.9583 2.08273ZM47.9167 20.8327H43.4875C42.5 17.616 39.5833 9.22853 37.9563 5.76193C39.5458 5.22238 42.9605 4.29523 47.9167 4.17863V20.8327Z" fill="#252934"/>
</svg>
