<svg width="60" height="60" viewBox="0 0 60 60" fill="none" xmlns="http://www.w3.org/2000/svg">
<g clip-path="url(#clip0)">
<path d="M60 30C60 39.6465 55.4461 48.2302 48.371 53.7184C43.2955 57.6564 36.922 60 30 60C23.1404 60 16.8196 57.698 11.7661 53.8236C4.61262 48.3416 0 39.709 0 30C0 13.4314 13.4314 0 30 0C46.5686 0 60 13.4314 60 30Z" fill="#F2F2F2"/>
<path d="M51.796 14.0009L48.371 53.7184C43.2955 57.6564 36.9221 60 30 60C23.1405 60 16.8196 57.698 11.7661 53.8236L8.33264 14.0009H51.796Z" fill="#E64C18"/>
<path d="M30.064 17.7245V59.0821L44.3508 55.0488L47.5377 17.7245H30.064Z" fill="#F36518"/>
<path d="M16.5121 22.9134L17.9131 39.5028H36.5345L35.9252 46.3556L30.0643 47.9428L23.9602 46.2328L23.8069 41.9603H18.1208L18.8326 50.3837L30.0643 53.5579L41.2959 50.3837L42.6879 33.9018H23.0775L22.5908 28.53L22.5907 28.5298L43.1515 28.4221L43.6165 22.9134H16.5121Z" fill="white"/>
<path d="M17.714 1.96828V4.81839H14.9908V1.96828H12.4574V10.1382H14.9908V7.47832H17.714V10.1382H20.2473V1.96828H17.714Z" fill="black"/>
<path d="M29.2408 1.96828H21.4506V4.81839H23.984V10.2018H26.7074V4.81839H29.2408V1.96828Z" fill="black"/>
<path d="M43.7442 7.60488V2.03168H41.0208V7.60488V10.2018H43.7442H47.6707V7.60488H43.7442Z" fill="black"/>
<path d="M36.904 2.03168L35.0041 4.94496L33.1041 2.03168H30.3807V10.2018H33.1041V6.14824L35.0041 9.06176L36.904 6.14824V10.2018H39.6274V2.03168H36.904Z" fill="black"/>
</g>
<defs>
<clipPath id="clip0">
<rect width="60" height="60" fill="white"/>
</clipPath>
</defs>
</svg>
