<svg width="60" height="60" viewBox="0 0 60 60" fill="none" xmlns="http://www.w3.org/2000/svg">
<path d="M28.4994 32.4093V24.6094L21.7445 20.7095L14.9897 24.6094V32.4093L21.7445 36.3091L28.4994 32.4093Z" fill="#3B8739"/>
<path d="M55.1021 31.2257L59.5041 33.7677L55.1021 36.3097L48.3477 32.4097V24.6097L55.1021 20.7097L59.1955 23.0742C59.6057 24.8044 59.8641 26.5922 59.9584 28.4228L57.4555 29.8677V27.1506L55.1021 25.7926L52.7486 27.1506V29.8677L55.1021 31.2257Z" fill="#333333"/>
<path d="M56.4131 29.2664V27.7523L55.1019 26.9953L53.7906 27.7523V29.2664L55.1019 30.0236L56.4131 29.2664Z" fill="#66A060"/>
<path d="M11.7991 24.6098V34.8955L7.29422 32.3254V27.0527L5.04492 25.7535L2.79551 27.0526V32.3252L0.237539 33.7849C0.0808594 32.5457 0 31.282 0 30C0 27.6514 0.269414 25.3654 0.78 23.1722L5.04492 20.7097L11.7991 24.6098Z" fill="#333333"/>
<path d="M28.4987 32.4083L21.744 20.7091L14.9895 24.6089L21.7442 36.3081L28.4987 32.4083Z" fill="#6DA75D"/>
<path d="M14.9897 32.4093L17.3091 28.6269L14.9897 24.6094V32.4093Z" fill="#55A344"/>
<path d="M26.2476 28.509L28.4994 24.6094L21.7445 20.7095L26.2476 28.509Z" fill="#639D57"/>
<path d="M40.6114 11.6694V22.0175L38.3474 20.7097L31.5919 24.6097V32.4097L38.3474 36.3097L45.1017 32.4097V14.073L40.6114 11.6694ZM40.5991 29.809L38.3472 31.1094L36.0954 29.809V27.2094L38.3472 25.909L40.5991 27.2094V29.809Z" fill="#333333"/>
<path d="M33.0643 42.0371C33.0643 42.0371 32.9316 40.897 31.7121 40.897C30.4924 40.897 29.6573 41.056 29.6573 41.7322C29.6573 42.4084 32.0304 42.4084 32.9319 42.6735C33.8334 42.9385 34.6288 43.628 34.231 44.8476C33.8333 46.0673 32.6136 46.1999 30.7311 46.1999C28.8486 46.1999 28.4243 44.6354 28.4243 44.0257H29.4848C29.4848 44.0257 29.3521 44.9802 30.5983 45.1392C31.8445 45.2982 33.0361 45.3878 33.1967 44.4234C33.4088 43.1507 29.1665 43.7871 28.7953 42.5409C28.4817 41.488 28.6626 40.1017 30.7838 39.8895C32.905 39.6772 34.0716 40.6138 34.0716 42.0107L33.0643 42.0371Z" fill="#66A060"/>
<path d="M22.8191 47.0075L25.1638 48.3612C26.3419 49.0413 27.8144 48.1911 27.8144 46.8308V44.4587V40.0931H26.8588V46.565C26.8588 47.3079 26.0546 47.7723 25.4112 47.4007L23.7746 46.4559V39.5489L29.7562 36.0957L35.7378 39.5489V46.4559L29.7562 49.9091L28.0331 48.9143L26.9079 49.368L29.7561 51.0125L36.6934 47.0072V38.9973L29.7562 34.9922L22.819 38.9975V47.0075H22.8191Z" fill="#66A060"/>
</svg>
