<svg width="60" height="60" viewBox="0 0 60 60" fill="none" xmlns="http://www.w3.org/2000/svg">
<path d="M60 30C60 39.8841 55.2196 48.6514 47.8457 54.1175C44.7587 56.4049 41.2175 58.1142 37.3823 59.0841C35.0204 59.6829 32.5481 60 30 60C27.4519 60 24.9784 59.6829 22.6164 59.0841C18.7813 58.1142 15.24 56.4049 12.153 54.1162C4.77914 48.6502 0 39.8829 0 30C0 13.4314 13.4314 0 30 0C46.5686 0 60 13.4314 60 30Z" fill="#5ADAFD"/>
<path d="M47.8763 46.8919C47.7355 45.9478 47.5494 44.9755 47.3192 43.9813C47.1159 43.1082 46.8796 42.218 46.6115 41.3143C45.9062 38.9413 44.9769 36.4752 43.8503 33.9821C43.3569 32.8923 42.8254 31.7976 42.2585 30.7042C41.7589 29.7405 41.2324 28.7756 40.6776 27.8168C40.1241 26.8568 39.5536 25.9188 38.967 25.0042C38.3046 23.9671 37.6225 22.9605 36.9246 21.9882C35.3302 19.7658 33.6589 17.7271 31.9556 15.9294C31.3079 15.2449 30.6552 14.5959 30.0001 13.9849C29.2544 13.287 28.505 12.6393 27.7568 12.0453C22.8723 8.16738 18.4996 7.00289 15.4421 8.76738C12.3846 10.533 11.2066 14.902 12.1225 21.0723C12.2621 22.0164 12.4495 22.9887 12.6809 23.9829C12.8818 24.8559 13.118 25.7462 13.3875 26.6498C14.0928 29.0229 15.0221 31.4903 16.1499 33.982C16.6422 35.0719 17.1736 36.1652 17.7405 37.2587C18.2401 38.2236 18.7679 39.1873 19.3214 40.1473C19.8748 41.1073 20.4454 42.0452 21.032 42.9599C21.6956 43.9983 22.3776 45.0048 23.0744 45.977C24.6687 48.1994 26.3401 50.237 28.0434 52.0345C28.6912 52.719 29.345 53.3692 30.0001 53.9802C30.7457 54.6781 31.4952 55.3247 32.2421 55.9186C34.0385 57.3451 35.765 58.4042 37.3825 59.0839C41.2176 58.1141 44.7589 56.4048 47.8457 54.1174C48.2766 52.1314 48.2926 49.6984 47.8763 46.8919ZM45.1261 53.6719C44.7697 55.2123 44.1146 56.2678 43.1779 56.8078C42.2424 57.349 41.0008 57.3882 39.4885 56.9278C37.8501 56.4269 35.9375 55.3323 33.9563 53.7588C33.2902 53.2298 32.6228 52.6543 31.9555 52.0359C31.3016 51.4285 30.6477 50.7796 29.9988 50.0926C28.8845 48.9135 27.7824 47.6228 26.7073 46.238C25.9898 45.3135 25.2833 44.3474 24.5939 43.3445C23.5934 41.891 22.6273 40.3604 21.7089 38.7685C20.7894 37.1767 19.9469 35.5751 19.1889 33.982C18.6649 32.8836 18.1811 31.789 17.7404 30.7053C17.0779 29.0817 16.511 27.4813 16.0469 25.9274C15.7775 25.0213 15.5412 24.1323 15.344 23.2617C15.1407 22.3752 14.9755 21.5082 14.8505 20.6671C14.4784 18.1655 14.4869 15.9614 14.8726 14.2924C15.2289 12.752 15.8852 11.6965 16.8207 11.1565C17.3264 10.865 17.9203 10.7181 18.5974 10.7181C19.1753 10.7181 19.8145 10.8246 20.51 11.0377C22.1484 11.5372 24.061 12.6332 26.0422 14.2055C26.7083 14.7345 27.3768 15.31 28.043 15.9308C28.6981 16.5369 29.3509 17.1859 29.9986 17.8717C31.1141 19.0508 32.2161 20.3415 33.2925 21.7276C34.01 22.6521 34.7165 23.6182 35.4059 24.6211C36.4051 26.0746 37.3713 27.6051 38.2896 29.1957C39.2091 30.7876 40.0516 32.3892 40.8096 33.9823C41.3336 35.0818 41.8174 36.1766 42.2581 37.2602C42.9206 38.8839 43.4875 40.4831 43.9516 42.0369C44.221 42.943 44.4573 43.832 44.6557 44.7026C44.8577 45.5891 45.023 46.456 45.148 47.2972C45.5204 49.7988 45.5118 52.0029 45.1261 53.6719Z" fill="#F2F2F2"/>
<path d="M50.1184 24.9564C49.2306 24.6062 48.295 24.2817 47.3179 23.9829C46.4608 23.722 45.5718 23.4809 44.6546 23.2617C42.2472 22.6862 39.6465 22.2577 36.9245 21.9882C35.7355 21.8694 34.522 21.7826 33.2926 21.7274C32.2077 21.6772 31.1081 21.6514 30 21.6514C28.8918 21.6514 27.7922 21.6771 26.7061 21.7274C25.4755 21.7825 24.262 21.8707 23.073 21.9882C20.351 22.2577 17.7514 22.6862 15.344 23.2617C14.4269 23.4809 13.5379 23.7221 12.6807 23.9829C11.7036 24.2804 10.7681 24.6062 9.88028 24.9564C4.07997 27.2461 0.884033 30.4519 0.884033 33.982C0.884033 37.5122 4.07997 40.718 9.8804 43.009C10.7682 43.3591 11.7024 43.6836 12.6795 43.9825C13.5366 44.2433 14.4256 44.4845 15.3429 44.7025C17.7502 45.2791 20.351 45.7065 23.0743 45.9771C24.2633 46.0946 25.4768 46.1816 26.7074 46.238C27.7923 46.2881 28.8918 46.3126 30 46.3126C31.1081 46.3126 32.2065 46.2881 33.2914 46.238C34.522 46.1816 35.7343 46.0946 36.9245 45.9771C39.6465 45.7077 42.2485 45.2791 44.6559 44.7025C45.573 44.4833 46.462 44.2433 47.3192 43.9813C48.2952 43.6837 49.2307 43.3593 50.1184 43.009C55.92 40.718 59.1147 37.5123 59.1147 33.982C59.1146 30.4519 55.92 27.2461 50.1184 24.9564ZM54.6146 37.2367C53.3632 38.4061 51.4579 39.5142 49.1056 40.4436C48.3134 40.7558 47.4807 41.0473 46.6113 41.3142C45.7578 41.5775 44.8701 41.8187 43.9517 42.0367C42.3733 42.4126 40.7043 42.7212 38.9668 42.96C37.8084 43.1204 36.6194 43.249 35.4059 43.3433C33.6464 43.4842 31.8378 43.5552 29.9999 43.5552C28.1619 43.5552 26.3533 43.4842 24.5938 43.3446C23.3803 43.2491 22.1901 43.1205 21.0317 42.9601C19.2942 42.7213 17.6252 42.4127 16.0468 42.0368C15.1284 41.8188 14.2407 41.5777 13.3872 41.3143C12.5178 41.0474 11.6852 40.7559 10.8929 40.4437C8.54071 39.5143 6.63536 38.4062 5.38392 37.2368C4.22798 36.158 3.64145 35.0633 3.64145 33.9821C3.64145 32.901 4.22798 31.8062 5.38392 30.7275C6.63536 29.5581 8.5406 28.45 10.8929 27.5205C11.6851 27.2084 12.5178 26.9169 13.3872 26.65C14.2407 26.3866 15.1284 26.1455 16.0468 25.9275C17.6252 25.5516 19.2942 25.243 21.0317 25.0042C22.1901 24.8437 23.3803 24.7152 24.5938 24.6197C26.3533 24.4801 28.1619 24.4091 29.9999 24.4091C31.8378 24.4091 33.6464 24.4801 35.4059 24.621C36.6194 24.7153 37.8084 24.8439 38.9668 25.0043C40.7043 25.2431 42.3733 25.5517 43.9517 25.9276C44.8701 26.1456 45.7578 26.3868 46.6113 26.6501C47.4807 26.917 48.3133 27.2085 49.1056 27.5207C51.4578 28.4501 53.3632 29.5582 54.6146 30.7276C55.7706 31.8064 56.3571 32.9011 56.3571 33.9823C56.3571 35.0633 55.7706 36.158 54.6146 37.2367Z" fill="#F2F2F2"/>
<path d="M44.5566 8.76738C41.4991 7.00289 37.1265 8.16738 32.242 12.0453C31.495 12.6393 30.7456 13.287 30 13.9849C29.3449 14.5959 28.691 15.2461 28.0433 15.9306C26.34 17.7281 24.6686 19.7657 23.0731 21.9881C22.3764 22.9603 21.6943 23.9669 21.032 25.0041C20.4454 25.9187 19.8748 26.8567 19.3214 27.8167C18.7679 28.7767 18.2402 29.7403 17.7405 30.7052C17.1736 31.7987 16.6421 32.8933 16.1499 33.9819C15.0221 36.4749 14.0928 38.941 13.3875 41.3141C13.118 42.219 12.8818 43.1092 12.6796 43.9822C12.4495 44.9765 12.2621 45.9476 12.1225 46.8916C11.7062 49.697 11.7221 52.13 12.1531 54.1161C15.2401 56.4047 18.7813 58.1141 22.6164 59.0839C24.234 58.4044 25.9605 57.3451 27.7569 55.9186C28.505 55.3247 29.2544 54.677 30.0002 53.9802C30.6553 53.3692 31.308 52.7202 31.9557 52.0357C33.6577 50.2381 35.3304 48.1993 36.9247 45.9769C37.6214 45.0046 38.3035 43.998 38.9671 42.9598C39.5537 42.0451 40.1243 41.1071 40.6777 40.1471C41.2324 39.1883 41.7589 38.2247 42.2586 37.2598C42.8255 36.1663 43.357 35.0716 43.8505 33.9818C44.977 31.4899 45.9064 29.0226 46.6116 26.6496C46.8798 25.746 47.1161 24.8557 47.3182 23.9826C47.5496 22.9883 47.7357 22.0161 47.8766 21.0721C48.7922 14.902 47.6143 10.533 44.5566 8.76738ZM43.9518 25.9274C43.4878 27.4813 42.9208 29.0804 42.2584 30.7041C41.8175 31.7877 41.3339 32.8825 40.8098 33.982C40.0518 35.5751 39.2094 37.1767 38.2898 38.7685C37.3714 40.3591 36.4053 41.8897 35.4062 43.3432C34.7156 44.3473 34.0091 45.3133 33.2915 46.2378C32.2164 47.6228 31.1144 48.9133 29.9989 50.0925C29.3512 50.7781 28.6985 51.4271 28.0434 52.0345C27.3773 52.6541 26.7088 53.2296 26.0425 53.7586C24.0614 55.3321 22.1486 56.4267 20.5104 56.9276C18.9982 57.388 17.7564 57.3487 16.8209 56.8076C15.8854 56.2676 15.2291 55.2121 14.8728 53.6716C14.4871 52.0026 14.4785 49.7986 14.8508 47.297C14.9757 46.4558 15.1409 45.5889 15.343 44.7023C15.5414 43.8317 15.7776 42.9428 16.047 42.0367C16.5111 40.4828 17.078 38.8823 17.7405 37.2587C18.1814 36.1751 18.665 35.0803 19.1891 33.982C19.947 32.389 20.7895 30.7874 21.7091 29.1955C22.6275 27.6036 23.5936 26.073 24.594 24.6196C25.2834 23.6167 25.9886 22.6506 26.7062 21.7274C27.7825 20.3413 28.8846 19.0507 29.9988 17.8714C30.6478 17.1845 31.3017 16.5355 31.9555 15.9294C32.6229 15.3098 33.2901 14.7343 33.9563 14.2053C35.9375 12.6332 37.8502 11.5372 39.4885 11.0375C40.184 10.8245 40.8232 10.718 41.4011 10.718C42.0782 10.718 42.6733 10.8649 43.1778 11.1564C44.1145 11.6964 44.7697 12.7519 45.1259 14.2923C45.5116 15.9613 45.5203 18.1653 45.148 20.6669C45.0231 21.5081 44.8578 22.3751 44.6545 23.2616C44.4575 24.1322 44.2211 25.0212 43.9518 25.9274Z" fill="#F2F2F2"/>
<path d="M29.9999 39.4542C33.0221 39.4542 35.4721 37.0042 35.4721 33.982C35.4721 30.9598 33.0221 28.5098 29.9999 28.5098C26.9777 28.5098 24.5278 30.9598 24.5278 33.982C24.5278 37.0042 26.9777 39.4542 29.9999 39.4542Z" fill="#F2F2F2"/>
</svg>
