<svg width="60" height="60" viewBox="0 0 60 60" fill="none" xmlns="http://www.w3.org/2000/svg">
<path d="M30.4145 32.0683L23.3207 52.6822C25.4397 53.3033 27.6799 53.6461 30.0012 53.6461C32.7538 53.6461 35.3955 53.1697 37.8517 52.3054C37.7886 52.2039 37.7311 52.0963 37.6841 51.9794L30.4145 32.0683Z" fill="black"/>
<path d="M6.3551 29.9988C6.3551 39.3588 11.7946 47.4469 19.6822 51.279L8.40357 20.3764C7.09196 23.317 6.3551 26.5713 6.3551 29.9988Z" fill="black"/>
<path d="M45.9614 28.8059C45.9614 25.8839 44.9128 23.8608 44.0132 22.2844C42.8142 20.3368 41.6907 18.688 41.6907 16.7397C41.6907 14.5663 43.3388 12.5432 45.6614 12.5432C45.7666 12.5432 45.8655 12.5562 45.9682 12.5611C41.7624 8.70859 36.1584 6.35512 30.0019 6.35512C21.7399 6.35512 14.4723 10.5931 10.246 17.0132C10.8004 17.0299 11.3219 17.0417 11.7674 17.0417C14.2409 17.0417 18.0699 16.7416 18.0699 16.7416C19.3456 16.6649 19.4941 18.5376 18.2215 18.688C18.2215 18.688 16.9402 18.8383 15.5154 18.9138L24.1244 44.5255L29.2984 29.0058L25.6135 18.9132C24.3403 18.8377 23.1345 18.6874 23.1345 18.6874C21.8612 18.6131 22.0097 16.6655 23.2836 16.741C23.2836 16.741 27.1893 17.041 29.5112 17.041C31.9841 17.041 35.8144 16.741 35.8144 16.741C37.0901 16.6655 37.2392 18.537 35.9647 18.6874C35.9647 18.6874 34.6822 18.8377 33.2586 18.9132L41.8045 44.3306L44.1629 36.4498C45.1844 33.1794 45.9614 30.8297 45.9614 28.8059Z" fill="black"/>
<path d="M50.7476 18.6552C50.849 19.4075 50.9072 20.2174 50.9072 21.0866C50.9072 23.4859 50.4599 26.1833 49.1099 29.5558L41.8868 50.437C48.9157 46.3376 53.6455 38.7216 53.6455 30C53.6461 25.8882 52.595 22.0227 50.7476 18.6552Z" fill="black"/>
<path d="M30.0004 0C13.432 0 0.000976562 13.4316 0.000976562 30C0.000976562 46.5684 13.432 60 30.0004 60C46.5687 60 59.9997 46.5684 59.9997 30C59.9997 13.4316 46.5687 0 30.0004 0ZM30.0016 56.2984C15.4996 56.2984 3.70318 44.502 3.70318 29.9988C3.70318 15.498 15.499 3.70159 30.0016 3.70159C44.5017 3.70159 56.2975 15.4987 56.2975 29.9988C56.2982 44.5007 44.5011 56.2984 30.0016 56.2984Z" fill="black"/>
</svg>
